<?xml version="1.0" encoding="utf-8"?>
<!DOCTYPE svg PUBLIC "-//W3C//DTD SVG 20010904//EN" "http://www.w3.org/TR/2001/REC-SVG-20010904/DTD/svg10.dtd">
<svg xmlns="http://www.w3.org/2000/svg" xml:space="preserve" xmlns:xlink="http://www.w3.org/1999/xlink" width="592" height="592" viewBox="0 0 592 592">
<desc></desc>
<rect width="592" height="592" fill="#ffffff" cx="0" cy="0" />
<defs>
<rect id="p" width="16" height="16" />
<circle id="circle" r="8" stroke-width="0" fill="006747" />
<rect id="hor" width="16" height="4" />
<rect id="ver" width="4" height="16" />
<polygon id="3d1" points="0,0 16,0 0,16" stroke-width="0" fill="006747" />
<polygon id="3d2" points="0,16 16,0 16,16" stroke-width="0" fill="#80b3a3" />
</defs>
<g fill="#006747">
<use x="40" y="40" xlink:href="#circle" />
<use x="56" y="40" xlink:href="#circle" />
<use x="72" y="40" xlink:href="#circle" />
<use x="88" y="40" xlink:href="#circle" />
<use x="104" y="40" xlink:href="#circle" />
<use x="120" y="40" xlink:href="#circle" />
<use x="136" y="40" xlink:href="#circle" />
<use x="168" y="40" xlink:href="#circle" />
<use x="216" y="40" xlink:href="#circle" />
<use x="296" y="40" xlink:href="#circle" />
<use x="328" y="40" xlink:href="#circle" />
<use x="344" y="40" xlink:href="#circle" />
<use x="360" y="40" xlink:href="#circle" />
<use x="376" y="40" xlink:href="#circle" />
<use x="392" y="40" xlink:href="#circle" />
<use x="408" y="40" xlink:href="#circle" />
<use x="456" y="40" xlink:href="#circle" />
<use x="472" y="40" xlink:href="#circle" />
<use x="488" y="40" xlink:href="#circle" />
<use x="504" y="40" xlink:href="#circle" />
<use x="520" y="40" xlink:href="#circle" />
<use x="536" y="40" xlink:href="#circle" />
<use x="552" y="40" xlink:href="#circle" />
<use x="40" y="56" xlink:href="#circle" />
<use x="136" y="56" xlink:href="#circle" />
<use x="200" y="56" xlink:href="#circle" />
<use x="232" y="56" xlink:href="#circle" />
<use x="280" y="56" xlink:href="#circle" />
<use x="328" y="56" xlink:href="#circle" />
<use x="376" y="56" xlink:href="#circle" />
<use x="456" y="56" xlink:href="#circle" />
<use x="552" y="56" xlink:href="#circle" />
<use x="40" y="72" xlink:href="#circle" />
<use x="72" y="72" xlink:href="#circle" />
<use x="88" y="72" xlink:href="#circle" />
<use x="104" y="72" xlink:href="#circle" />
<use x="136" y="72" xlink:href="#circle" />
<use x="216" y="72" xlink:href="#circle" />
<use x="248" y="72" xlink:href="#circle" />
<use x="280" y="72" xlink:href="#circle" />
<use x="360" y="72" xlink:href="#circle" />
<use x="376" y="72" xlink:href="#circle" />
<use x="456" y="72" xlink:href="#circle" />
<use x="488" y="72" xlink:href="#circle" />
<use x="504" y="72" xlink:href="#circle" />
<use x="520" y="72" xlink:href="#circle" />
<use x="552" y="72" xlink:href="#circle" />
<use x="40" y="88" xlink:href="#circle" />
<use x="72" y="88" xlink:href="#circle" />
<use x="88" y="88" xlink:href="#circle" />
<use x="104" y="88" xlink:href="#circle" />
<use x="136" y="88" xlink:href="#circle" />
<use x="200" y="88" xlink:href="#circle" />
<use x="328" y="88" xlink:href="#circle" />
<use x="344" y="88" xlink:href="#circle" />
<use x="376" y="88" xlink:href="#circle" />
<use x="392" y="88" xlink:href="#circle" />
<use x="408" y="88" xlink:href="#circle" />
<use x="456" y="88" xlink:href="#circle" />
<use x="488" y="88" xlink:href="#circle" />
<use x="504" y="88" xlink:href="#circle" />
<use x="520" y="88" xlink:href="#circle" />
<use x="552" y="88" xlink:href="#circle" />
<use x="40" y="104" xlink:href="#circle" />
<use x="72" y="104" xlink:href="#circle" />
<use x="88" y="104" xlink:href="#circle" />
<use x="104" y="104" xlink:href="#circle" />
<use x="136" y="104" xlink:href="#circle" />
<use x="168" y="104" xlink:href="#circle" />
<use x="200" y="104" xlink:href="#circle" />
<use x="216" y="104" xlink:href="#circle" />
<use x="232" y="104" xlink:href="#circle" />
<use x="248" y="104" xlink:href="#circle" />
<use x="264" y="104" xlink:href="#circle" />
<use x="280" y="104" xlink:href="#circle" />
<use x="296" y="104" xlink:href="#circle" />
<use x="312" y="104" xlink:href="#circle" />
<use x="360" y="104" xlink:href="#circle" />
<use x="376" y="104" xlink:href="#circle" />
<use x="392" y="104" xlink:href="#circle" />
<use x="408" y="104" xlink:href="#circle" />
<use x="456" y="104" xlink:href="#circle" />
<use x="488" y="104" xlink:href="#circle" />
<use x="504" y="104" xlink:href="#circle" />
<use x="520" y="104" xlink:href="#circle" />
<use x="552" y="104" xlink:href="#circle" />
<use x="40" y="120" xlink:href="#circle" />
<use x="136" y="120" xlink:href="#circle" />
<use x="168" y="120" xlink:href="#circle" />
<use x="184" y="120" xlink:href="#circle" />
<use x="200" y="120" xlink:href="#circle" />
<use x="216" y="120" xlink:href="#circle" />
<use x="232" y="120" xlink:href="#circle" />
<use x="264" y="120" xlink:href="#circle" />
<use x="328" y="120" xlink:href="#circle" />
<use x="344" y="120" xlink:href="#circle" />
<use x="376" y="120" xlink:href="#circle" />
<use x="456" y="120" xlink:href="#circle" />
<use x="552" y="120" xlink:href="#circle" />
<use x="40" y="136" xlink:href="#circle" />
<use x="56" y="136" xlink:href="#circle" />
<use x="72" y="136" xlink:href="#circle" />
<use x="88" y="136" xlink:href="#circle" />
<use x="104" y="136" xlink:href="#circle" />
<use x="120" y="136" xlink:href="#circle" />
<use x="136" y="136" xlink:href="#circle" />
<use x="168" y="136" xlink:href="#circle" />
<use x="200" y="136" xlink:href="#circle" />
<use x="232" y="136" xlink:href="#circle" />
<use x="264" y="136" xlink:href="#circle" />
<use x="296" y="136" xlink:href="#circle" />
<use x="328" y="136" xlink:href="#circle" />
<use x="360" y="136" xlink:href="#circle" />
<use x="392" y="136" xlink:href="#circle" />
<use x="424" y="136" xlink:href="#circle" />
<use x="456" y="136" xlink:href="#circle" />
<use x="472" y="136" xlink:href="#circle" />
<use x="488" y="136" xlink:href="#circle" />
<use x="504" y="136" xlink:href="#circle" />
<use x="520" y="136" xlink:href="#circle" />
<use x="536" y="136" xlink:href="#circle" />
<use x="552" y="136" xlink:href="#circle" />
<use x="184" y="152" xlink:href="#circle" />
<use x="216" y="152" xlink:href="#circle" />
<use x="232" y="152" xlink:href="#circle" />
<use x="296" y="152" xlink:href="#circle" />
<use x="344" y="152" xlink:href="#circle" />
<use x="360" y="152" xlink:href="#circle" />
<use x="376" y="152" xlink:href="#circle" />
<use x="392" y="152" xlink:href="#circle" />
<use x="408" y="152" xlink:href="#circle" />
<use x="424" y="152" xlink:href="#circle" />
<use x="56" y="168" xlink:href="#circle" />
<use x="72" y="168" xlink:href="#circle" />
<use x="88" y="168" xlink:href="#circle" />
<use x="104" y="168" xlink:href="#circle" />
<use x="120" y="168" xlink:href="#circle" />
<use x="136" y="168" xlink:href="#circle" />
<use x="152" y="168" xlink:href="#circle" />
<use x="184" y="168" xlink:href="#circle" />
<use x="200" y="168" xlink:href="#circle" />
<use x="232" y="168" xlink:href="#circle" />
<use x="248" y="168" xlink:href="#circle" />
<use x="264" y="168" xlink:href="#circle" />
<use x="312" y="168" xlink:href="#circle" />
<use x="344" y="168" xlink:href="#circle" />
<use x="392" y="168" xlink:href="#circle" />
<use x="424" y="168" xlink:href="#circle" />
<use x="472" y="168" xlink:href="#circle" />
<use x="488" y="168" xlink:href="#circle" />
<use x="552" y="168" xlink:href="#circle" />
<use x="40" y="184" xlink:href="#circle" />
<use x="72" y="184" xlink:href="#circle" />
<use x="120" y="184" xlink:href="#circle" />
<use x="152" y="184" xlink:href="#circle" />
<use x="168" y="184" xlink:href="#circle" />
<use x="184" y="184" xlink:href="#circle" />
<use x="280" y="184" xlink:href="#circle" />
<use x="312" y="184" xlink:href="#circle" />
<use x="328" y="184" xlink:href="#circle" />
<use x="344" y="184" xlink:href="#circle" />
<use x="360" y="184" xlink:href="#circle" />
<use x="376" y="184" xlink:href="#circle" />
<use x="392" y="184" xlink:href="#circle" />
<use x="408" y="184" xlink:href="#circle" />
<use x="424" y="184" xlink:href="#circle" />
<use x="456" y="184" xlink:href="#circle" />
<use x="472" y="184" xlink:href="#circle" />
<use x="504" y="184" xlink:href="#circle" />
<use x="520" y="184" xlink:href="#circle" />
<use x="536" y="184" xlink:href="#circle" />
<use x="552" y="184" xlink:href="#circle" />
<use x="136" y="200" xlink:href="#circle" />
<use x="184" y="200" xlink:href="#circle" />
<use x="200" y="200" xlink:href="#circle" />
<use x="216" y="200" xlink:href="#circle" />
<use x="232" y="200" xlink:href="#circle" />
<use x="248" y="200" xlink:href="#circle" />
<use x="280" y="200" xlink:href="#circle" />
<use x="296" y="200" xlink:href="#circle" />
<use x="312" y="200" xlink:href="#circle" />
<use x="360" y="200" xlink:href="#circle" />
<use x="376" y="200" xlink:href="#circle" />
<use x="440" y="200" xlink:href="#circle" />
<use x="488" y="200" xlink:href="#circle" />
<use x="520" y="200" xlink:href="#circle" />
<use x="536" y="200" xlink:href="#circle" />
<use x="88" y="216" xlink:href="#circle" />
<use x="104" y="216" xlink:href="#circle" />
<use x="120" y="216" xlink:href="#circle" />
<use x="152" y="216" xlink:href="#circle" />
<use x="184" y="216" xlink:href="#circle" />
<use x="216" y="216" xlink:href="#circle" />
<use x="312" y="216" xlink:href="#circle" />
<use x="328" y="216" xlink:href="#circle" />
<use x="344" y="216" xlink:href="#circle" />
<use x="360" y="216" xlink:href="#circle" />
<use x="376" y="216" xlink:href="#circle" />
<use x="440" y="216" xlink:href="#circle" />
<use x="456" y="216" xlink:href="#circle" />
<use x="488" y="216" xlink:href="#circle" />
<use x="504" y="216" xlink:href="#circle" />
<use x="520" y="216" xlink:href="#circle" />
<use x="536" y="216" xlink:href="#circle" />
<use x="552" y="216" xlink:href="#circle" />
<use x="56" y="232" xlink:href="#circle" />
<use x="72" y="232" xlink:href="#circle" />
<use x="88" y="232" xlink:href="#circle" />
<use x="104" y="232" xlink:href="#circle" />
<use x="136" y="232" xlink:href="#circle" />
<use x="184" y="232" xlink:href="#circle" />
<use x="200" y="232" xlink:href="#circle" />
<use x="232" y="232" xlink:href="#circle" />
<use x="248" y="232" xlink:href="#circle" />
<use x="280" y="232" xlink:href="#circle" />
<use x="296" y="232" xlink:href="#circle" />
<use x="344" y="232" xlink:href="#circle" />
<use x="360" y="232" xlink:href="#circle" />
<use x="392" y="232" xlink:href="#circle" />
<use x="424" y="232" xlink:href="#circle" />
<use x="440" y="232" xlink:href="#circle" />
<use x="472" y="232" xlink:href="#circle" />
<use x="504" y="232" xlink:href="#circle" />
<use x="536" y="232" xlink:href="#circle" />
<use x="552" y="232" xlink:href="#circle" />
<use x="56" y="248" xlink:href="#circle" />
<use x="152" y="248" xlink:href="#circle" />
<use x="232" y="248" xlink:href="#circle" />
<use x="248" y="248" xlink:href="#circle" />
<use x="264" y="248" xlink:href="#circle" />
<use x="328" y="248" xlink:href="#circle" />
<use x="376" y="248" xlink:href="#circle" />
<use x="392" y="248" xlink:href="#circle" />
<use x="408" y="248" xlink:href="#circle" />
<use x="440" y="248" xlink:href="#circle" />
<use x="456" y="248" xlink:href="#circle" />
<use x="504" y="248" xlink:href="#circle" />
<use x="520" y="248" xlink:href="#circle" />
<use x="536" y="248" xlink:href="#circle" />
<use x="552" y="248" xlink:href="#circle" />
<use x="72" y="264" xlink:href="#circle" />
<use x="120" y="264" xlink:href="#circle" />
<use x="136" y="264" xlink:href="#circle" />
<use x="168" y="264" xlink:href="#circle" />
<use x="200" y="264" xlink:href="#circle" />
<use x="264" y="264" xlink:href="#circle" />
<use x="296" y="264" xlink:href="#circle" />
<use x="360" y="264" xlink:href="#circle" />
<use x="424" y="264" xlink:href="#circle" />
<use x="440" y="264" xlink:href="#circle" />
<use x="456" y="264" xlink:href="#circle" />
<use x="488" y="264" xlink:href="#circle" />
<use x="536" y="264" xlink:href="#circle" />
<use x="216" y="280" xlink:href="#circle" />
<use x="232" y="280" xlink:href="#circle" />
<use x="264" y="280" xlink:href="#circle" />
<use x="280" y="280" xlink:href="#circle" />
<use x="296" y="280" xlink:href="#circle" />
<use x="328" y="280" xlink:href="#circle" />
<use x="376" y="280" xlink:href="#circle" />
<use x="424" y="280" xlink:href="#circle" />
<use x="440" y="280" xlink:href="#circle" />
<use x="456" y="280" xlink:href="#circle" />
<use x="488" y="280" xlink:href="#circle" />
<use x="504" y="280" xlink:href="#circle" />
<use x="520" y="280" xlink:href="#circle" />
<use x="136" y="296" xlink:href="#circle" />
<use x="200" y="296" xlink:href="#circle" />
<use x="280" y="296" xlink:href="#circle" />
<use x="296" y="296" xlink:href="#circle" />
<use x="312" y="296" xlink:href="#circle" />
<use x="408" y="296" xlink:href="#circle" />
<use x="424" y="296" xlink:href="#circle" />
<use x="440" y="296" xlink:href="#circle" />
<use x="472" y="296" xlink:href="#circle" />
<use x="488" y="296" xlink:href="#circle" />
<use x="504" y="296" xlink:href="#circle" />
<use x="552" y="296" xlink:href="#circle" />
<use x="120" y="312" xlink:href="#circle" />
<use x="152" y="312" xlink:href="#circle" />
<use x="184" y="312" xlink:href="#circle" />
<use x="216" y="312" xlink:href="#circle" />
<use x="232" y="312" xlink:href="#circle" />
<use x="312" y="312" xlink:href="#circle" />
<use x="328" y="312" xlink:href="#circle" />
<use x="344" y="312" xlink:href="#circle" />
<use x="376" y="312" xlink:href="#circle" />
<use x="408" y="312" xlink:href="#circle" />
<use x="456" y="312" xlink:href="#circle" />
<use x="472" y="312" xlink:href="#circle" />
<use x="504" y="312" xlink:href="#circle" />
<use x="520" y="312" xlink:href="#circle" />
<use x="552" y="312" xlink:href="#circle" />
<use x="56" y="328" xlink:href="#circle" />
<use x="72" y="328" xlink:href="#circle" />
<use x="104" y="328" xlink:href="#circle" />
<use x="136" y="328" xlink:href="#circle" />
<use x="152" y="328" xlink:href="#circle" />
<use x="168" y="328" xlink:href="#circle" />
<use x="216" y="328" xlink:href="#circle" />
<use x="264" y="328" xlink:href="#circle" />
<use x="280" y="328" xlink:href="#circle" />
<use x="328" y="328" xlink:href="#circle" />
<use x="360" y="328" xlink:href="#circle" />
<use x="456" y="328" xlink:href="#circle" />
<use x="472" y="328" xlink:href="#circle" />
<use x="488" y="328" xlink:href="#circle" />
<use x="520" y="328" xlink:href="#circle" />
<use x="40" y="344" xlink:href="#circle" />
<use x="56" y="344" xlink:href="#circle" />
<use x="72" y="344" xlink:href="#circle" />
<use x="120" y="344" xlink:href="#circle" />
<use x="184" y="344" xlink:href="#circle" />
<use x="248" y="344" xlink:href="#circle" />
<use x="296" y="344" xlink:href="#circle" />
<use x="312" y="344" xlink:href="#circle" />
<use x="360" y="344" xlink:href="#circle" />
<use x="376" y="344" xlink:href="#circle" />
<use x="440" y="344" xlink:href="#circle" />
<use x="472" y="344" xlink:href="#circle" />
<use x="488" y="344" xlink:href="#circle" />
<use x="504" y="344" xlink:href="#circle" />
<use x="520" y="344" xlink:href="#circle" />
<use x="536" y="344" xlink:href="#circle" />
<use x="552" y="344" xlink:href="#circle" />
<use x="56" y="360" xlink:href="#circle" />
<use x="136" y="360" xlink:href="#circle" />
<use x="152" y="360" xlink:href="#circle" />
<use x="168" y="360" xlink:href="#circle" />
<use x="184" y="360" xlink:href="#circle" />
<use x="200" y="360" xlink:href="#circle" />
<use x="216" y="360" xlink:href="#circle" />
<use x="232" y="360" xlink:href="#circle" />
<use x="248" y="360" xlink:href="#circle" />
<use x="264" y="360" xlink:href="#circle" />
<use x="280" y="360" xlink:href="#circle" />
<use x="296" y="360" xlink:href="#circle" />
<use x="344" y="360" xlink:href="#circle" />
<use x="376" y="360" xlink:href="#circle" />
<use x="392" y="360" xlink:href="#circle" />
<use x="440" y="360" xlink:href="#circle" />
<use x="472" y="360" xlink:href="#circle" />
<use x="488" y="360" xlink:href="#circle" />
<use x="504" y="360" xlink:href="#circle" />
<use x="552" y="360" xlink:href="#circle" />
<use x="40" y="376" xlink:href="#circle" />
<use x="120" y="376" xlink:href="#circle" />
<use x="168" y="376" xlink:href="#circle" />
<use x="184" y="376" xlink:href="#circle" />
<use x="200" y="376" xlink:href="#circle" />
<use x="296" y="376" xlink:href="#circle" />
<use x="312" y="376" xlink:href="#circle" />
<use x="328" y="376" xlink:href="#circle" />
<use x="360" y="376" xlink:href="#circle" />
<use x="408" y="376" xlink:href="#circle" />
<use x="456" y="376" xlink:href="#circle" />
<use x="552" y="376" xlink:href="#circle" />
<use x="40" y="392" xlink:href="#circle" />
<use x="72" y="392" xlink:href="#circle" />
<use x="88" y="392" xlink:href="#circle" />
<use x="104" y="392" xlink:href="#circle" />
<use x="136" y="392" xlink:href="#circle" />
<use x="168" y="392" xlink:href="#circle" />
<use x="184" y="392" xlink:href="#circle" />
<use x="216" y="392" xlink:href="#circle" />
<use x="248" y="392" xlink:href="#circle" />
<use x="280" y="392" xlink:href="#circle" />
<use x="344" y="392" xlink:href="#circle" />
<use x="392" y="392" xlink:href="#circle" />
<use x="424" y="392" xlink:href="#circle" />
<use x="440" y="392" xlink:href="#circle" />
<use x="472" y="392" xlink:href="#circle" />
<use x="488" y="392" xlink:href="#circle" />
<use x="504" y="392" xlink:href="#circle" />
<use x="520" y="392" xlink:href="#circle" />
<use x="536" y="392" xlink:href="#circle" />
<use x="40" y="408" xlink:href="#circle" />
<use x="72" y="408" xlink:href="#circle" />
<use x="88" y="408" xlink:href="#circle" />
<use x="152" y="408" xlink:href="#circle" />
<use x="216" y="408" xlink:href="#circle" />
<use x="232" y="408" xlink:href="#circle" />
<use x="248" y="408" xlink:href="#circle" />
<use x="264" y="408" xlink:href="#circle" />
<use x="280" y="408" xlink:href="#circle" />
<use x="344" y="408" xlink:href="#circle" />
<use x="360" y="408" xlink:href="#circle" />
<use x="376" y="408" xlink:href="#circle" />
<use x="424" y="408" xlink:href="#circle" />
<use x="456" y="408" xlink:href="#circle" />
<use x="504" y="408" xlink:href="#circle" />
<use x="520" y="408" xlink:href="#circle" />
<use x="536" y="408" xlink:href="#circle" />
<use x="40" y="424" xlink:href="#circle" />
<use x="88" y="424" xlink:href="#circle" />
<use x="104" y="424" xlink:href="#circle" />
<use x="136" y="424" xlink:href="#circle" />
<use x="168" y="424" xlink:href="#circle" />
<use x="216" y="424" xlink:href="#circle" />
<use x="232" y="424" xlink:href="#circle" />
<use x="248" y="424" xlink:href="#circle" />
<use x="296" y="424" xlink:href="#circle" />
<use x="312" y="424" xlink:href="#circle" />
<use x="344" y="424" xlink:href="#circle" />
<use x="392" y="424" xlink:href="#circle" />
<use x="408" y="424" xlink:href="#circle" />
<use x="424" y="424" xlink:href="#circle" />
<use x="440" y="424" xlink:href="#circle" />
<use x="456" y="424" xlink:href="#circle" />
<use x="472" y="424" xlink:href="#circle" />
<use x="488" y="424" xlink:href="#circle" />
<use x="504" y="424" xlink:href="#circle" />
<use x="552" y="424" xlink:href="#circle" />
<use x="168" y="440" xlink:href="#circle" />
<use x="216" y="440" xlink:href="#circle" />
<use x="248" y="440" xlink:href="#circle" />
<use x="264" y="440" xlink:href="#circle" />
<use x="328" y="440" xlink:href="#circle" />
<use x="344" y="440" xlink:href="#circle" />
<use x="360" y="440" xlink:href="#circle" />
<use x="424" y="440" xlink:href="#circle" />
<use x="488" y="440" xlink:href="#circle" />
<use x="520" y="440" xlink:href="#circle" />
<use x="552" y="440" xlink:href="#circle" />
<use x="40" y="456" xlink:href="#circle" />
<use x="56" y="456" xlink:href="#circle" />
<use x="72" y="456" xlink:href="#circle" />
<use x="88" y="456" xlink:href="#circle" />
<use x="104" y="456" xlink:href="#circle" />
<use x="120" y="456" xlink:href="#circle" />
<use x="136" y="456" xlink:href="#circle" />
<use x="168" y="456" xlink:href="#circle" />
<use x="184" y="456" xlink:href="#circle" />
<use x="200" y="456" xlink:href="#circle" />
<use x="216" y="456" xlink:href="#circle" />
<use x="248" y="456" xlink:href="#circle" />
<use x="280" y="456" xlink:href="#circle" />
<use x="328" y="456" xlink:href="#circle" />
<use x="360" y="456" xlink:href="#circle" />
<use x="376" y="456" xlink:href="#circle" />
<use x="408" y="456" xlink:href="#circle" />
<use x="424" y="456" xlink:href="#circle" />
<use x="456" y="456" xlink:href="#circle" />
<use x="488" y="456" xlink:href="#circle" />
<use x="520" y="456" xlink:href="#circle" />
<use x="536" y="456" xlink:href="#circle" />
<use x="40" y="472" xlink:href="#circle" />
<use x="136" y="472" xlink:href="#circle" />
<use x="168" y="472" xlink:href="#circle" />
<use x="184" y="472" xlink:href="#circle" />
<use x="200" y="472" xlink:href="#circle" />
<use x="232" y="472" xlink:href="#circle" />
<use x="248" y="472" xlink:href="#circle" />
<use x="280" y="472" xlink:href="#circle" />
<use x="344" y="472" xlink:href="#circle" />
<use x="360" y="472" xlink:href="#circle" />
<use x="376" y="472" xlink:href="#circle" />
<use x="408" y="472" xlink:href="#circle" />
<use x="424" y="472" xlink:href="#circle" />
<use x="488" y="472" xlink:href="#circle" />
<use x="504" y="472" xlink:href="#circle" />
<use x="520" y="472" xlink:href="#circle" />
<use x="552" y="472" xlink:href="#circle" />
<use x="40" y="488" xlink:href="#circle" />
<use x="72" y="488" xlink:href="#circle" />
<use x="88" y="488" xlink:href="#circle" />
<use x="104" y="488" xlink:href="#circle" />
<use x="136" y="488" xlink:href="#circle" />
<use x="168" y="488" xlink:href="#circle" />
<use x="184" y="488" xlink:href="#circle" />
<use x="216" y="488" xlink:href="#circle" />
<use x="248" y="488" xlink:href="#circle" />
<use x="296" y="488" xlink:href="#circle" />
<use x="312" y="488" xlink:href="#circle" />
<use x="344" y="488" xlink:href="#circle" />
<use x="424" y="488" xlink:href="#circle" />
<use x="440" y="488" xlink:href="#circle" />
<use x="456" y="488" xlink:href="#circle" />
<use x="472" y="488" xlink:href="#circle" />
<use x="488" y="488" xlink:href="#circle" />
<use x="504" y="488" xlink:href="#circle" />
<use x="536" y="488" xlink:href="#circle" />
<use x="552" y="488" xlink:href="#circle" />
<use x="40" y="504" xlink:href="#circle" />
<use x="72" y="504" xlink:href="#circle" />
<use x="88" y="504" xlink:href="#circle" />
<use x="104" y="504" xlink:href="#circle" />
<use x="136" y="504" xlink:href="#circle" />
<use x="168" y="504" xlink:href="#circle" />
<use x="184" y="504" xlink:href="#circle" />
<use x="200" y="504" xlink:href="#circle" />
<use x="232" y="504" xlink:href="#circle" />
<use x="248" y="504" xlink:href="#circle" />
<use x="312" y="504" xlink:href="#circle" />
<use x="376" y="504" xlink:href="#circle" />
<use x="440" y="504" xlink:href="#circle" />
<use x="488" y="504" xlink:href="#circle" />
<use x="504" y="504" xlink:href="#circle" />
<use x="520" y="504" xlink:href="#circle" />
<use x="552" y="504" xlink:href="#circle" />
<use x="40" y="520" xlink:href="#circle" />
<use x="72" y="520" xlink:href="#circle" />
<use x="88" y="520" xlink:href="#circle" />
<use x="104" y="520" xlink:href="#circle" />
<use x="136" y="520" xlink:href="#circle" />
<use x="168" y="520" xlink:href="#circle" />
<use x="264" y="520" xlink:href="#circle" />
<use x="280" y="520" xlink:href="#circle" />
<use x="360" y="520" xlink:href="#circle" />
<use x="424" y="520" xlink:href="#circle" />
<use x="440" y="520" xlink:href="#circle" />
<use x="456" y="520" xlink:href="#circle" />
<use x="472" y="520" xlink:href="#circle" />
<use x="40" y="536" xlink:href="#circle" />
<use x="136" y="536" xlink:href="#circle" />
<use x="168" y="536" xlink:href="#circle" />
<use x="184" y="536" xlink:href="#circle" />
<use x="232" y="536" xlink:href="#circle" />
<use x="248" y="536" xlink:href="#circle" />
<use x="296" y="536" xlink:href="#circle" />
<use x="328" y="536" xlink:href="#circle" />
<use x="360" y="536" xlink:href="#circle" />
<use x="376" y="536" xlink:href="#circle" />
<use x="392" y="536" xlink:href="#circle" />
<use x="408" y="536" xlink:href="#circle" />
<use x="488" y="536" xlink:href="#circle" />
<use x="504" y="536" xlink:href="#circle" />
<use x="520" y="536" xlink:href="#circle" />
<use x="40" y="552" xlink:href="#circle" />
<use x="56" y="552" xlink:href="#circle" />
<use x="72" y="552" xlink:href="#circle" />
<use x="88" y="552" xlink:href="#circle" />
<use x="104" y="552" xlink:href="#circle" />
<use x="120" y="552" xlink:href="#circle" />
<use x="136" y="552" xlink:href="#circle" />
<use x="184" y="552" xlink:href="#circle" />
<use x="232" y="552" xlink:href="#circle" />
<use x="248" y="552" xlink:href="#circle" />
<use x="264" y="552" xlink:href="#circle" />
<use x="328" y="552" xlink:href="#circle" />
<use x="344" y="552" xlink:href="#circle" />
<use x="392" y="552" xlink:href="#circle" />
<use x="424" y="552" xlink:href="#circle" />
<use x="440" y="552" xlink:href="#circle" />
<use x="456" y="552" xlink:href="#circle" />
<use x="472" y="552" xlink:href="#circle" />
<use x="536" y="552" xlink:href="#circle" />
</g>
</svg>